<svg width="25" height="24" viewBox="0 0 25 24" fill="none" xmlns="http://www.w3.org/2000/svg">
<g id="Instagram">
<path id="Icon" d="M17.0198 1.92487C18.3451 1.92868 19.615 2.43698 20.5521 3.33876C21.4893 4.24054 22.0175 5.46252 22.0214 6.73783V16.3627C22.0175 17.638 21.4893 18.86 20.5521 19.7618C19.615 20.6635 18.3451 21.1718 17.0198 21.1757H7.0176C5.6923 21.1718 4.42241 20.6635 3.48528 19.7618C2.54814 18.86 2.01992 17.638 2.01596 16.3627V6.73783C2.01992 5.46252 2.54814 4.24054 3.48528 3.33876C4.42241 2.43698 5.6923 1.92868 7.0176 1.92487H17.0198ZM17.0198 0H7.0176C3.16643 0 0.015625 3.03194 0.015625 6.73783V16.3627C0.015625 20.0686 3.16643 23.1005 7.0176 23.1005H17.0198C20.871 23.1005 24.0218 20.0686 24.0218 16.3627V6.73783C24.0218 3.03194 20.871 0 17.0198 0Z" fill="#181818"/>
<path id="Icon_2" d="M18.5196 6.73815C18.2229 6.73815 17.9328 6.65348 17.6861 6.49483C17.4393 6.33619 17.247 6.1107 17.1335 5.84688C17.0199 5.58306 16.9902 5.29277 17.0481 5.0127C17.106 4.73264 17.2489 4.47538 17.4587 4.27346C17.6685 4.07154 17.9359 3.93404 18.2269 3.87833C18.518 3.82262 18.8196 3.85121 19.0938 3.96049C19.368 4.06976 19.6023 4.25482 19.7672 4.49225C19.932 4.72968 20.02 5.00882 20.02 5.29437C20.0204 5.48408 19.9819 5.67201 19.9067 5.84736C19.8314 6.02272 19.7209 6.18204 19.5815 6.31619C19.4421 6.45034 19.2765 6.55667 19.0943 6.62908C18.9121 6.70149 18.7168 6.73856 18.5196 6.73815ZM12.0181 7.70033C12.8095 7.70033 13.5831 7.92615 14.2411 8.34922C14.8991 8.77229 15.4119 9.37362 15.7148 10.0772C16.0176 10.7807 16.0969 11.5549 15.9425 12.3017C15.7881 13.0486 15.407 13.7347 14.8474 14.2731C14.2878 14.8116 13.5749 15.1783 12.7987 15.3269C12.0226 15.4754 11.2181 15.3992 10.4869 15.1078C9.75582 14.8163 9.13092 14.3229 8.69126 13.6897C8.2516 13.0565 8.01694 12.3121 8.01694 11.5506C8.01807 10.5298 8.43999 9.55108 9.19012 8.82925C9.94024 8.10742 10.9573 7.70142 12.0181 7.70033ZM12.0181 5.77546C10.8312 5.77546 9.67081 6.11416 8.68387 6.74874C7.69692 7.38332 6.92769 8.28528 6.47344 9.34054C6.0192 10.3958 5.90035 11.557 6.13192 12.6773C6.36349 13.7975 6.93508 14.8266 7.77441 15.6342C8.61374 16.4419 9.68312 16.9919 10.8473 17.2148C12.0115 17.4376 13.2182 17.3232 14.3148 16.8861C15.4115 16.449 16.3488 15.7088 17.0082 14.7591C17.6677 13.8094 18.0197 12.6928 18.0197 11.5506C18.0197 10.0189 17.3874 8.55 16.2619 7.46696C15.1364 6.38391 13.6098 5.77546 12.0181 5.77546Z" fill="#181818"/>
</g>
</svg>
